<svg version="1.1" id="Layer_1" xmlns="http://www.w3.org/2000/svg" xmlns:xlink="http://www.w3.org/1999/xlink" x="0px" y="0px"
	 width="100%" viewBox="0 0 200 200" enable-background="new 0 0 200 200" xml:space="preserve">
<path fill="#FFFFFF" opacity="1.000000" stroke="none" 
	d="
M132.000000,201.000000 
	C88.000000,201.000000 44.500004,201.000000 1.000006,201.000000 
	C1.000004,134.333344 1.000004,67.666679 1.000002,1.000015 
	C67.666656,1.000010 134.333313,1.000010 200.999969,1.000005 
	C200.999985,67.666649 200.999985,134.333298 201.000000,200.999969 
	C178.166672,201.000000 155.333328,201.000000 132.000000,201.000000 
M130.445648,165.896667 
	C131.973221,167.097839 133.473526,168.335968 135.036240,169.489563 
	C136.535217,170.596130 138.004211,172.302017 139.653885,172.529419 
	C143.088074,173.002792 146.633911,172.725143 150.132065,172.659302 
	C153.854218,172.589218 154.537628,170.966415 152.440506,167.948715 
	C150.069687,164.537186 147.766006,161.078979 145.326706,157.484192 
	C158.632690,144.401749 161.374435,127.982399 159.859207,110.480164 
	C158.518799,94.996971 152.499771,81.948151 138.683319,73.375618 
	C137.297394,72.515709 136.352951,70.359131 135.927078,68.626503 
	C131.128571,49.104267 118.414909,37.549023 98.231667,34.571037 
	C79.410522,31.794018 61.434753,39.964779 52.530842,55.521233 
	C45.236835,68.264938 44.372932,82.146988 46.465233,96.218124 
	C48.535355,110.140121 54.843513,121.677406 67.394775,129.185516 
	C68.682686,129.955933 69.533379,132.002197 69.937454,133.618774 
	C73.106049,146.295349 79.426125,156.713745 91.296860,162.897202 
	C103.556076,169.283051 116.462212,169.661224 130.445648,165.896667 
z"/>
<path fill="#030303" opacity="1.000000" stroke="none" 
	d="
M130.033554,165.972900 
	C116.462212,169.661224 103.556076,169.283051 91.296860,162.897202 
	C79.426125,156.713745 73.106049,146.295349 69.937454,133.618774 
	C69.533379,132.002197 68.682686,129.955933 67.394775,129.185516 
	C54.843513,121.677406 48.535355,110.140121 46.465233,96.218124 
	C44.372932,82.146988 45.236835,68.264938 52.530842,55.521233 
	C61.434753,39.964779 79.410522,31.794018 98.231667,34.571037 
	C118.414909,37.549023 131.128571,49.104267 135.927078,68.626503 
	C136.352951,70.359131 137.297394,72.515709 138.683319,73.375618 
	C152.499771,81.948151 158.518799,94.996971 159.859207,110.480164 
	C161.374435,127.982399 158.632690,144.401749 145.326706,157.484192 
	C147.766006,161.078979 150.069687,164.537186 152.440506,167.948715 
	C154.537628,170.966415 153.854218,172.589218 150.132065,172.659302 
	C146.633911,172.725143 143.088074,173.002792 139.653885,172.529419 
	C138.004211,172.302017 136.535217,170.596130 135.036240,169.489563 
	C133.473526,168.335968 131.973221,167.097839 130.033554,165.972900 
M114.010178,65.974998 
	C108.019196,55.019901 99.845749,50.488010 87.822914,52.033741 
	C76.823799,53.447857 69.928596,60.362240 67.396698,70.629219 
	C65.724312,77.410828 65.852882,84.743332 65.966934,91.816414 
	C66.029640,95.704819 67.731682,99.566788 68.694588,103.440681 
	C74.284256,84.846619 85.008255,72.510674 104.022926,68.427750 
	C107.339844,67.715523 110.725632,67.323990 114.010178,65.974998 
M134.953781,139.674927 
	C142.423737,126.452827 141.980026,112.929192 137.247955,99.938446 
	C132.828079,108.141541 128.274979,116.591866 123.407745,125.625229 
	C126.328819,129.826874 129.907806,134.986923 133.522446,140.121872 
	C133.643738,140.294174 134.125061,140.212997 134.953781,139.674927 
M98.213326,90.649734 
	C95.966446,93.492004 93.719574,96.334267 90.996315,99.779152 
	C104.768707,100.344391 104.768707,100.344391 112.549744,108.335999 
	C114.760872,100.280220 116.743233,93.057899 118.855118,85.363663 
	C110.474152,84.364578 104.296562,86.003304 98.213326,90.649734 
M115.461113,141.010834 
	C113.432152,138.030655 111.403183,135.050476 109.660347,132.490555 
	C103.352318,133.573700 97.576950,134.565384 91.812744,135.555145 
	C95.803627,147.279938 108.843719,153.543610 121.166252,149.393005 
	C119.382118,146.749237 117.640266,144.168106 115.461113,141.010834 
M93.105423,108.290451 
	C92.188156,107.095955 91.270897,105.901466 89.498451,103.593307 
	C88.812836,108.954842 88.306107,112.917480 87.709755,117.580956 
	C91.654175,117.337082 94.827995,117.140854 98.930641,116.887199 
	C96.798813,113.731857 95.165398,111.314232 93.105423,108.290451 
z"/>
<path fill="#FAFAFA" opacity="1.000000" stroke="none" 
	d="
M114.044891,66.379669 
	C110.725632,67.323990 107.339844,67.715523 104.022926,68.427750 
	C85.008255,72.510674 74.284256,84.846619 68.694588,103.440681 
	C67.731682,99.566788 66.029640,95.704819 65.966934,91.816414 
	C65.852882,84.743332 65.724312,77.410828 67.396698,70.629219 
	C69.928596,60.362240 76.823799,53.447857 87.822914,52.033741 
	C99.845749,50.488010 108.019196,55.019901 114.044891,66.379669 
z"/>
<path fill="#F8F8F8" opacity="1.000000" stroke="none" 
	d="
M134.696167,139.962463 
	C134.125061,140.212997 133.643738,140.294174 133.522446,140.121872 
	C129.907806,134.986923 126.328819,129.826874 123.407745,125.625229 
	C128.274979,116.591866 132.828079,108.141541 137.247955,99.938446 
	C141.980026,112.929192 142.423737,126.452827 134.696167,139.962463 
z"/>
<path fill="#F8F8F8" opacity="1.000000" stroke="none" 
	d="
M98.488312,90.413773 
	C104.296562,86.003304 110.474152,84.364578 118.855118,85.363663 
	C116.743233,93.057899 114.760872,100.280220 112.549744,108.335999 
	C104.768707,100.344391 104.768707,100.344391 90.996315,99.779152 
	C93.719574,96.334267 95.966446,93.492004 98.488312,90.413773 
z"/>
<path fill="#F7F7F7" opacity="1.000000" stroke="none" 
	d="
M115.679764,141.298904 
	C117.640266,144.168106 119.382118,146.749237 121.166252,149.393005 
	C108.843719,153.543610 95.803627,147.279938 91.812744,135.555145 
	C97.576950,134.565384 103.352318,133.573700 109.660347,132.490555 
	C111.403183,135.050476 113.432152,138.030655 115.679764,141.298904 
z"/>
<path fill="#EFEFEF" opacity="1.000000" stroke="none" 
	d="
M93.318703,108.593529 
	C95.165398,111.314232 96.798813,113.731857 98.930641,116.887199 
	C94.827995,117.140854 91.654175,117.337082 87.709755,117.580956 
	C88.306107,112.917480 88.812836,108.954842 89.498451,103.593307 
	C91.270897,105.901466 92.188156,107.095955 93.318703,108.593529 
z"/>
</svg>