<?xml version="1.0" encoding="UTF-8"?>
<svg version="1.1" xmlns="http://www.w3.org/2000/svg" width="1920" height="1080">
<path d="M0 0 C1.43203011 -0.01058945 1.43203011 -0.01058945 2.89299011 -0.02139282 C43.55655745 -0.25364881 43.55655745 -0.25364881 63.59375 3.203125 C64.67897949 3.38584961 65.76420898 3.56857422 66.88232422 3.75683594 C119.80718364 13.02801079 168.00892626 36.9960482 207.59375 73.203125 C208.60872377 74.11400742 209.62437626 75.024134 210.640625 75.93359375 C216.34731742 81.06197721 221.73050148 86.25484892 226.59375 92.203125 C227.58042003 93.37786388 228.56743338 94.55231445 229.5546875 95.7265625 C236.8782609 104.50877292 243.53256568 113.50871638 249.59375 123.203125 C250.1820459 124.1305249 250.1820459 124.1305249 250.78222656 125.07666016 C267.18922775 151.12260684 278.77726693 179.71022859 286.46875 209.453125 C286.76354248 210.57976562 287.05833496 211.70640625 287.36206055 212.8671875 C288.56473276 217.59229686 289.67096398 222.21226996 290.20703125 227.0625 C290.82862641 232.00933803 291.41932582 236.40145925 295.47363281 239.76074219 C300.41077529 242.99658632 305.70067061 245.46411938 311.04199219 247.95166016 C314.74431074 249.76739733 318.13270075 251.93963546 321.53125 254.265625 C322.13420898 254.67619141 322.73716797 255.08675781 323.35839844 255.50976562 C343.600154 269.49015981 362.46412563 285.73906771 377.59375 305.203125 C378.38136719 306.18539063 379.16898438 307.16765625 379.98046875 308.1796875 C435.73278569 378.23114525 449.24964308 475.42491451 439.953125 562.2253418 C435.26415337 602.83324715 425.57372175 643.33873952 407.59375 680.203125 C406.95346342 681.55944133 406.3141123 682.91619973 405.67578125 684.2734375 C393.70320362 709.35544553 377.49572485 732.73380178 357.59375 752.203125 C358.94724565 755.08315866 360.49159064 757.56936664 362.39453125 760.1171875 C362.95269531 760.86871094 363.51085938 761.62023437 364.0859375 762.39453125 C364.68664063 763.19761719 365.28734375 764.00070312 365.90625 764.828125 C367.18433537 766.5489286 368.46166207 768.2702959 369.73828125 769.9921875 C370.38490723 770.86391602 371.0315332 771.73564453 371.69775391 772.63378906 C374.52724869 776.46814435 377.31218847 780.33392911 380.09375 784.203125 C386.27401635 792.78724608 392.54161491 801.30514864 398.82763672 809.81201172 C402.33069827 814.55475222 405.82734055 819.30223585 409.3215332 824.05151367 C412.35136176 828.1679662 415.39086033 832.2767768 418.4453125 836.375 C419.07695313 837.22513672 419.70859375 838.07527344 420.359375 838.95117188 C421.56198036 840.5693835 422.76751628 842.18542311 423.9765625 843.79882812 C427.18737889 848.12661484 430.02406734 852.46488087 432.59375 857.203125 C427.97950145 858.31812254 423.43253502 858.49144538 418.71118164 858.68383789 C417.82585754 858.7229982 416.94053345 858.76215851 416.02838135 858.80250549 C413.10371047 858.93081841 410.1788327 859.05344324 407.25390625 859.17578125 C405.20949724 859.26377742 403.1650994 859.35203318 401.12071228 859.4405365 C396.83114667 859.62536636 392.54147604 859.80745641 388.25170898 859.98754883 C382.78813267 860.21707771 377.32484033 860.4526943 371.86161137 860.69033146 C367.63459235 860.87361502 363.40745024 861.05392032 359.18026543 861.23333549 C357.16826277 861.31901902 355.15629489 861.40552395 353.14436531 861.49290657 C344.29022952 861.87585075 335.43435227 862.24902642 326.57250977 862.38671875 C325.52772964 862.40347656 324.48294952 862.42023437 323.4065094 862.4375 C318.40653715 862.02087407 314.65324127 859.75357822 310.46875 857.140625 C308.57426665 856.03414369 306.67835985 854.93009699 304.78125 853.828125 C303.78609375 853.23902344 302.7909375 852.64992188 301.765625 852.04296875 C296.67455068 849.08989485 291.47196614 846.35020409 286.27114868 843.597229 C283.2929877 842.01660162 280.32502947 840.41701915 277.35546875 838.8203125 C273.12181641 836.54807074 268.87602908 834.30305428 264.61328125 832.0859375 C262.83579879 831.14609562 261.05844584 830.20600876 259.28125 829.265625 C258.49411621 828.86593506 257.70698242 828.46624512 256.89599609 828.05444336 C252.61167679 825.7639334 250.10481792 823.71518237 247.23828125 819.76171875 C245.63234455 817.63873447 245.63234455 817.63873447 243.59375 816.203125 C239.69915021 815.98920329 236.30572221 817.11327996 232.59375 818.203125 C230.759892 818.56133081 228.92103958 818.89488415 227.078125 819.203125 C225.68605835 819.4491748 225.68605835 819.4491748 224.26586914 819.70019531 C153.57898104 831.86620663 75.04848978 821.68042722 15.25390625 779.82421875 C14.03216407 778.95288576 12.81220079 778.07905468 11.59375 777.203125 C10.90007324 776.70699707 10.20639648 776.21086914 9.49169922 775.69970703 C5.69423471 772.97909795 1.90961033 770.2414002 -1.8671875 767.4921875 C-6.18461065 764.35408608 -10.53939549 761.27190383 -14.90625 758.203125 C-17.74078316 756.20482204 -20.57363818 754.20415019 -23.40625 752.203125 C-24.15970703 751.67187012 -24.91316406 751.14061523 -25.68945312 750.59326172 C-46.19309377 736.10212863 -65.19292381 720.25091678 -80.16357422 699.89013672 C-81.38489961 698.23210951 -82.63002916 696.59436002 -83.87890625 694.95703125 C-105.18142742 666.58460405 -129.40625 619.91228048 -129.40625 583.203125 C-130.54707031 582.88214844 -130.54707031 582.88214844 -131.7109375 582.5546875 C-136.88426771 580.66253924 -141.65846945 578.13491086 -146.53125 575.578125 C-147.5622583 575.03760498 -148.5932666 574.49708496 -149.65551758 573.94018555 C-156.90936694 570.09236198 -163.78027977 566.06876284 -170.40625 561.203125 C-171.39367187 560.48640625 -172.38109375 559.7696875 -173.3984375 559.03125 C-176.431828 556.79287024 -179.42389529 554.50894555 -182.40625 552.203125 C-183.25316406 551.56375 -184.10007812 550.924375 -184.97265625 550.265625 C-198.60663089 539.60822803 -210.99666559 526.8437538 -221.19140625 512.86669922 C-222.41195603 511.19531131 -223.65727809 509.54474997 -224.90625 507.89453125 C-276.1000574 439.32658208 -286.95297035 345.08242075 -275.33424377 262.35908508 C-269.07779207 219.31438176 -255.43305509 175.20118796 -230.40625 139.203125 C-229.6740625 138.13964844 -228.941875 137.07617188 -228.1875 135.98046875 C-221.19261573 125.95205101 -213.68439468 116.2934105 -206.24072266 106.59716797 C-204.6681698 104.54493836 -203.1030081 102.48752472 -201.54296875 100.42578125 C-187.76297404 82.24968176 -172.82947163 65.77482856 -154.40625 52.203125 C-153.84615234 51.78224609 -153.28605469 51.36136719 -152.70898438 50.92773438 C-109.69299509 18.62853135 -53.79249533 0.2673185 0 0 Z M-91.046875 167.76171875 C-93.68345412 170.806725 -96.08227865 173.91807655 -98.40625 177.203125 C-99.16679688 178.26660156 -99.92734375 179.33007812 -100.7109375 180.42578125 C-137.17492131 233.43934688 -138.00858287 315.35725708 -127.08789062 376.27490234 C-125.49993375 384.46225566 -123.18808545 392.34786013 -120.40625 400.203125 C-118.81266216 397.16167171 -117.56307632 394.08357877 -116.375 390.86328125 C-106.36941365 364.07095469 -94.7589922 338.39378341 -76.40625 316.203125 C-75.53639089 315.12896086 -74.66660063 314.05474097 -73.796875 312.98046875 C-63.30481057 300.16723566 -51.7507352 289.01143594 -38.40625 279.203125 C-37.34664062 278.42195313 -36.28703125 277.64078125 -35.1953125 276.8359375 C-26.96587914 270.96357641 -18.35278022 265.89752856 -9.40625 261.203125 C-7.84342285 260.37361328 -7.84342285 260.37361328 -6.24902344 259.52734375 C6.37491828 252.95274312 19.53873963 247.67086964 32.71875 242.328125 C33.90897766 241.84333679 35.09920532 241.35854858 36.32550049 240.85906982 C54.20009681 233.58930714 72.10370176 226.7477598 90.59375 221.203125 C86.17424215 201.13653106 62.46034066 182.63866491 46.02734375 171.8203125 C11.9387821 150.1168211 -58.17949208 135.915364 -91.046875 167.76171875 Z M66.00390625 373.52734375 C63.50590031 376.30065667 61.58087024 379.05416183 59.59375 382.203125 C60.28299561 382.1088623 60.97224121 382.01459961 61.68237305 381.91748047 C80.95960673 379.62797689 80.95960673 379.62797689 86.97314453 383.88916016 C90.92593485 388.13153218 93.6764297 392.99665706 96.36523438 398.10302734 C98.06494648 401.00861628 100.08097963 402.98411376 102.59375 405.203125 C105.64686103 398.12550268 107.87837115 391.07367652 109.65625 383.578125 C109.91229004 382.50651123 110.16833008 381.43489746 110.43212891 380.33081055 C113.40636896 367.37081036 115.99777547 353.5584113 115.59375 340.203125 C98.3782032 340.203125 77.29820527 362.29957963 66.00390625 373.52734375 Z M248.59375 506.203125 C247.39338319 507.93018337 246.23520976 509.68658014 245.09375 511.453125 C235.39282995 526.14210677 224.39699187 540.07770182 211.59375 552.203125 C212.86773333 555.69950996 214.33933627 558.48789984 216.5703125 561.4609375 C217.15522461 562.24686279 217.74013672 563.03278809 218.34277344 563.8425293 C218.9618457 564.66277588 219.58091797 565.48302246 220.21875 566.328125 C221.48742737 568.02440446 222.75565861 569.72101767 224.0234375 571.41796875 C224.94334473 572.64555908 224.94334473 572.64555908 225.88183594 573.89794922 C228.70714768 577.70236928 231.42832071 581.57917304 234.140625 585.46484375 C234.62015625 586.03847656 235.0996875 586.61210938 235.59375 587.203125 C236.25375 587.203125 236.91375 587.203125 237.59375 587.203125 C246.21144651 560.71807107 250.20579987 534.05139425 249.59375 506.203125 C249.26375 506.203125 248.93375 506.203125 248.59375 506.203125 Z M85.21875 615.97265625 C70.07229909 618.7841006 54.91920396 620.66650792 39.59375 622.203125 C42.94542678 629.15410731 46.34719109 635.87833831 50.78125 642.203125 C51.47855225 643.2082312 51.47855225 643.2082312 52.18994141 644.23364258 C59.58225617 654.65956083 68.71125278 663.62385471 77.96875 672.390625 C78.86335938 673.25042969 79.75796875 674.11023438 80.6796875 674.99609375 C89.34186536 681.55659038 102.00383622 680.38513672 112.34375 680.390625 C113.54257812 680.40287109 114.74140625 680.41511719 115.9765625 680.42773438 C123.71584778 680.4403254 131.00831141 679.74200996 138.59375 678.203125 C136.85604745 674.60966554 134.73862214 671.43231197 132.40625 668.203125 C131.9740918 667.60137451 131.54193359 666.99962402 131.09667969 666.37963867 C126.62194802 660.18295936 122.02669396 654.07670415 117.42749023 647.97216797 C112.31166913 641.17903905 107.25980334 634.34094217 102.24902344 627.4699707 C100.71100021 625.37026066 99.15954303 623.28219059 97.59375 621.203125 C97.13129883 620.58663086 96.66884766 619.97013672 96.19238281 619.33496094 C94.77824944 617.48225345 94.77824944 617.48225345 92.59375 615.203125 C89.94762719 615.203125 87.80058711 615.47864402 85.21875 615.97265625 Z " fill="#CDCDCE" transform="translate(820.40625,70.796875)"/>
<path d="M0 0 C0.66 0 1.32 0 2 0 C16.15769673 26.27917158 25.4644668 51.25270348 30 81 C30.16918945 82.09163452 30.16918945 82.09163452 30.34179688 83.20532227 C34.43636149 111.42415472 33.06590976 141.04104275 28 169 C27.73509766 170.47412354 27.73509766 170.47412354 27.46484375 171.97802734 C22.32672331 199.40512397 12.93251829 234.08183282 -8 254 C-15.46145401 243.88135639 -22.92001723 233.76068938 -30.34765625 223.6171875 C-32.63120838 220.49963505 -34.92442417 217.38935317 -37.22412109 214.28369141 C-38.15197547 213.01949386 -39.07044824 211.74835247 -39.97900391 210.47021484 C-42.14289012 207.43413791 -44.31984915 204.5992117 -46.90234375 201.90625 C-49.72849542 198.80185273 -51.64219311 196.04334268 -53 192 C-52.58976822 185.6810632 -50.01927394 179.71286814 -47.91455078 173.80126953 C-46.43729493 169.27643406 -45.56510099 164.68308786 -44.75 160 C-44.51120117 158.63234497 -44.51120117 158.63234497 -44.26757812 157.23706055 C-42.36577442 145.79892518 -41.08782366 134.22320658 -40.87109375 122.625 C-40.84877686 121.74408691 -40.82645996 120.86317383 -40.8034668 119.95556641 C-40.76931301 118.30713942 -40.75925025 116.65792094 -40.78051758 115.00927734 C-40.66031648 109.02211764 -38.71659547 105.04230522 -35.70703125 99.91943359 C-17.8844172 69.43848124 -6.62797007 34.55005672 0 0 Z " fill="#22254C" transform="translate(1110,467)"/>
<path d="M0 0 C0.495 0.99 0.495 0.99 1 2 C0.1706543 3.80566406 0.1706543 3.80566406 -1.17578125 6.015625 C-1.66925049 6.84336426 -2.16271973 7.67110352 -2.67114258 8.52392578 C-3.21279053 9.42353027 -3.75443848 10.32313477 -4.3125 11.25 C-13.6949619 27.26439193 -21.15348402 44.06238604 -27.17773438 61.61035156 C-27.72434444 63.1988965 -28.28030001 64.78425743 -28.84570312 66.36621094 C-43.13612099 106.48680325 -48.22160709 149.50484373 -48.25 191.875 C-48.25100708 192.92569672 -48.25201416 193.97639343 -48.25305176 195.05892944 C-48.23228101 227.31865278 -46.30946268 260.73716514 -37.55517578 291.92480469 C-36.93762324 294.2331585 -36.40213334 296.55306146 -35.87109375 298.8828125 C-33.01100089 311.09039052 -29.08361514 322.73883679 -24.625 334.4375 C-24.3584964 335.14308044 -24.0919928 335.84866089 -23.81741333 336.57562256 C-20.30410141 345.82937866 -16.31735934 354.71431686 -11.78564453 363.51464844 C-10.2107402 366.58866186 -8.71445467 369.68488267 -7.25 372.8125 C2.44372229 392.09543005 15.57194025 409.67181132 30.41796875 425.265625 C32.4507897 427.41838546 34.37342149 429.58871028 36.25 431.875 C39.47151712 435.68140352 43.19803375 438.78973049 47 442 C47.90234375 442.80179688 48.8046875 443.60359375 49.734375 444.4296875 C67.20410652 459.83344328 87.48573749 472.78246917 108.93359375 481.87011719 C109.69671875 482.20817383 110.45984375 482.54623047 111.24609375 482.89453125 C111.92341553 483.18175049 112.6007373 483.46896973 113.29858398 483.76489258 C116.82357224 486.32378418 117.29030811 490.88144644 118.0859375 494.9453125 C128.43510488 544.99794962 149.99619324 593.7069423 185.3125 631.125 C187.3728279 633.3290717 189.33687367 635.54597664 191.25 637.875 C193.94353023 641.09761652 197.03809165 643.7447737 200.265625 646.421875 C202 648 202 648 204 651 C199.37061479 648.79189016 195.28195365 645.89735817 191.0625 643 C190.21365234 642.41766602 189.36480469 641.83533203 188.49023438 641.23535156 C181.46516585 636.3826831 174.67999066 631.31691148 168 626 C167.12859375 625.33355469 166.2571875 624.66710937 165.359375 623.98046875 C152.09424759 613.59474774 140.175042 601.25620417 130.2265625 587.67089844 C129.01342434 586.01828746 127.77461088 584.38775631 126.53125 582.7578125 C105.22445985 554.38948778 81 507.70787829 81 471 C79.85917969 470.67902344 79.85917969 470.67902344 78.6953125 470.3515625 C73.52198229 468.45941424 68.74778055 465.93178586 63.875 463.375 C62.8439917 462.83447998 61.8129834 462.29395996 60.75073242 461.73706055 C53.49688306 457.88923698 46.62597023 453.86563784 40 449 C39.01257813 448.28328125 38.02515625 447.5665625 37.0078125 446.828125 C33.974422 444.58974524 30.98235471 442.30582055 28 440 C27.15308594 439.360625 26.30617188 438.72125 25.43359375 438.0625 C11.79961911 427.40510303 -0.59041559 414.6406288 -10.78515625 400.66357422 C-12.00570603 398.99218631 -13.25102809 397.34162497 -14.5 395.69140625 C-65.6938074 327.12345708 -76.54672035 232.87929575 -64.92799377 150.15596008 C-58.67296765 107.12106483 -45.03595281 62.98373009 -20 27 C-19.60458008 26.42878418 -19.20916016 25.85756836 -18.80175781 25.26904297 C-12.80653595 16.63753996 -6.46626422 8.28232141 0 0 Z " fill="#22264C" transform="translate(610,183)"/>
<path d="M0 0 C40.29841248 -1.73372879 79.84654531 11.73934236 109.74023438 38.92675781 C125.08733998 53.25728164 137.86984029 69.99660534 146.75 89.11669922 C146.75 89.77669922 146.75 90.43669922 146.75 91.11669922 C145.59721558 91.22159668 145.59721558 91.22159668 144.42114258 91.32861328 C127.40824304 92.90554846 110.81330157 95.12324348 94.09130859 98.68261719 C93.20910645 98.8658252 92.3269043 99.0490332 91.41796875 99.23779297 C90.62028076 99.40593506 89.82259277 99.57407715 89.00073242 99.74731445 C86.75 100.11669922 86.75 100.11669922 82.75 100.11669922 C80.99445638 97.86996723 79.53439603 95.72668872 78.0625 93.30419922 C58.1749681 62.08972518 28.687011 42.72169698 -7.11035156 34.58935547 C-33.92506664 28.66588578 -64.564172 30.8932299 -89.6875 42.49169922 C-90.863125 43.02794922 -92.03875 43.56419922 -93.25 44.11669922 C-93.91 43.78669922 -94.57 43.45669922 -95.25 43.11669922 C-93.96451591 41.77740417 -92.67141845 40.44541279 -91.375 39.11669922 C-90.65570312 38.37419922 -89.93640625 37.63169922 -89.1953125 36.86669922 C-87.25 35.11669922 -87.25 35.11669922 -85.25 35.11669922 C-85.25 34.45669922 -85.25 33.79669922 -85.25 33.11669922 C-83.12212979 31.32818762 -80.99814225 29.6804913 -78.75 28.05419922 C-78.07799561 27.56612793 -77.40599121 27.07805664 -76.71362305 26.57519531 C-53.89370891 10.32244813 -27.95245053 1.44979073 0 0 Z " fill="#22254C" transform="translate(828.25,190.88330078125)"/>
<path d="M0 0 C-1.94617747 43.08434266 -13.48750883 85.42094237 -40 120 C-43.16374057 116.93918934 -45.95609994 113.90286804 -48.5 110.3125 C-49.17804687 109.36375 -49.85609375 108.415 -50.5546875 107.4375 C-51.12461426 106.63505859 -51.12461426 106.63505859 -51.70605469 105.81640625 C-54.32802988 102.13574673 -56.97956293 98.47630996 -59.625 94.8125 C-60.43227539 93.69065308 -60.43227539 93.69065308 -61.25585938 92.54614258 C-61.78244141 91.81548584 -62.30902344 91.0848291 -62.8515625 90.33203125 C-63.36493164 89.60709473 -63.87830078 88.8821582 -64.40722656 88.13525391 C-65.97324875 85.96954253 -65.97324875 85.96954253 -67.80371094 83.98583984 C-71.98232181 79.18909829 -71.98232181 79.18909829 -72.03149414 75.8815918 C-71.52124845 73.50580144 -70.80282735 71.29312524 -70 69 C-69.52150299 67.25559742 -69.05449348 65.50801235 -68.59765625 63.7578125 C-68.22386841 62.39100342 -68.22386841 62.39100342 -67.8425293 60.99658203 C-63.24097552 44.05652708 -60.6509748 27.53142466 -60 10 C-40.84809322 1.34481136 -20.75127796 -0.37577767 0 0 Z " fill="#22254C" transform="translate(995,400)"/>
<path d="M0 0 C-0.59312988 0.34144043 -1.18625977 0.68288086 -1.79736328 1.03466797 C-13.59903765 7.85255029 -25.15475254 14.73014112 -36 23 C-36.87398437 23.66257812 -37.74796875 24.32515625 -38.6484375 25.0078125 C-45.43672116 30.29710608 -51.76137249 36.08252205 -58 42 C-58.50321777 42.47453613 -59.00643555 42.94907227 -59.52490234 43.43798828 C-66.98442512 50.51841662 -73.55145764 58.02470728 -79.70166016 66.26611328 C-80.92322311 67.8974672 -82.16981799 69.50999123 -83.41796875 71.12109375 C-111.05246699 107.95206449 -130.3828719 158.35276356 -136 204 C-144.7980254 195.64724989 -150.27434418 184.90765099 -155.5625 174.125 C-156.00424561 173.24585938 -156.44599121 172.36671875 -156.90112305 171.4609375 C-160.61793611 163.65629523 -160.97370687 158.38584288 -158.1640625 150.26953125 C-157.33445487 148.11067735 -156.48716294 145.95856012 -155.625 143.8125 C-155.17237793 142.66700684 -154.71975586 141.52151367 -154.25341797 140.34130859 C-145.00858952 117.27566977 -133.89931923 95.22941286 -118 76 C-117.14175936 74.93763548 -116.28368963 73.87513286 -115.42578125 72.8125 C-104.66531237 59.64341474 -92.7196843 48.04950066 -79 38 C-77.41251953 36.83017578 -77.41251953 36.83017578 -75.79296875 35.63671875 C-67.54840474 29.75064901 -58.91880556 24.77974003 -50 20 C-48.86175781 19.37738281 -47.72351563 18.75476563 -46.55078125 18.11328125 C-37.040993 13.05626775 -27.07924119 9.02138956 -17.125 4.9375 C-16.39506836 4.63565796 -15.66513672 4.33381592 -14.91308594 4.02282715 C-12.8231414 3.16130087 -10.72894281 2.31119111 -8.6328125 1.46484375 C-7.99393097 1.20072189 -7.35504944 0.93660004 -6.69680786 0.66447449 C-2.23007474 -1.11503737 -2.23007474 -1.11503737 0 0 Z " fill="#22254C" transform="translate(861,311)"/>
<path d="M0 0 C1.40356445 1.55615234 1.40356445 1.55615234 2.86328125 3.5859375 C3.41306641 4.34197266 3.96285156 5.09800781 4.52929688 5.87695312 C5.11775391 6.70130859 5.70621094 7.52566406 6.3125 8.375 C7.57923289 10.12253661 8.84616544 11.86992852 10.11328125 13.6171875 C10.75990723 14.51405273 11.4065332 15.41091797 12.07275391 16.33496094 C15.02027335 20.41085684 18.01066372 24.45473322 21 28.5 C22.1669058 30.0831571 23.33357167 31.66649108 24.5 33.25 C25.0775 34.03375 25.655 34.8175 26.25 35.625 C32.66666667 44.33333333 39.08333333 53.04166667 45.5 61.75 C46.07854736 62.53511963 46.65709473 63.32023926 47.25317383 64.12915039 C48.40946131 65.69850157 49.56555145 67.26799817 50.72143555 68.83764648 C53.79522703 73.01117514 56.8732877 77.18147424 59.95703125 81.34765625 C60.60220703 82.22035156 61.24738281 83.09304688 61.91210938 83.9921875 C63.15565201 85.67410128 64.40039653 87.35512727 65.64648438 89.03515625 C66.20271484 89.78796875 66.75894531 90.54078125 67.33203125 91.31640625 C67.82421143 91.98099854 68.3163916 92.64559082 68.82348633 93.33032227 C70 95 70 95 71 97 C32.46778853 104.02105372 -5.62497447 98.49691825 -38.89453125 77.171875 C-42 75 -42 75 -43 73 C-42.29617188 73.0707373 -41.59234375 73.14147461 -40.8671875 73.21435547 C-32.89516307 73.95457771 -25.00319811 74.15121135 -17 74.125 C-15.81921875 74.12886719 -14.6384375 74.13273438 -13.421875 74.13671875 C-5.89894488 74.12843358 1.51488567 73.75228141 9 73 C1.67351942 62.77010806 -5.74458204 52.61926776 -13.31591797 42.5690918 C-18.40565521 35.80889358 -23.4344491 29.00559162 -28.43334961 22.17797852 C-30.69848764 19.09050202 -32.9605615 16.04793096 -35.39453125 13.08984375 C-37 11 -37 11 -37 9 C-36.28980713 8.80365967 -35.57961426 8.60731934 -34.84790039 8.4050293 C-31.58542545 7.50160329 -28.32396166 6.59457691 -25.0625 5.6875 C-23.94552734 5.37876953 -22.82855469 5.07003906 -21.67773438 4.75195312 C-15.97152914 3.16224785 -10.34905066 1.51521591 -4.80249023 -0.57104492 C-3 -1 -3 -1 0 0 Z " fill="#22254C" transform="translate(950,676)"/>
<path d="M0 0 C2.30618636 0.98128142 3.264016 2.00114844 4.81298828 3.96191406 C5.59609375 4.9393457 5.59609375 4.9393457 6.39501953 5.93652344 C7.21679688 6.99323242 7.21679688 6.99323242 8.05517578 8.07128906 C8.63138672 8.79638672 9.20759766 9.52148438 9.80126953 10.26855469 C14.03783891 15.61828032 18.18728028 21.03533803 22.32470703 26.46191406 C25.88698206 31.09273228 29.60028685 35.60171158 33.29614258 40.12597656 C37.24861513 44.96791862 41.13573347 49.85401913 44.93017578 54.82128906 C44.43517578 55.81128906 44.43517578 55.81128906 43.93017578 56.82128906 C29.99388261 49.63806543 16.11098189 42.37702929 2.38330078 34.80175781 C-1.41392 32.71052476 -5.23803002 30.68188809 -9.08544922 28.68457031 C-10.07649658 28.1632251 -11.06754395 27.64187988 -12.08862305 27.10473633 C-13.96949481 26.116551 -15.85695986 25.14076569 -17.75219727 24.18041992 C-23.69102373 21.0341661 -28.2708221 17.44535605 -32.06982422 11.82128906 C-32.06982422 11.16128906 -32.06982422 10.50128906 -32.06982422 9.82128906 C-30.91981934 9.47348389 -30.91981934 9.47348389 -29.74658203 9.11865234 C-26.26986342 8.0648938 -22.7948381 7.00565511 -19.31982422 5.94628906 C-18.11326172 5.58148437 -16.90669922 5.21667969 -15.66357422 4.84082031 C-14.50341797 4.48632812 -13.34326172 4.13183594 -12.14794922 3.76660156 C-10.5454834 3.27957764 -10.5454834 3.27957764 -8.91064453 2.78271484 C-6.12198665 1.93396545 -6.12198665 1.93396545 -3.93994141 0.63720703 C-2.06982422 -0.17871094 -2.06982422 -0.17871094 0 0 Z " fill="#23264D" transform="translate(1096.06982421875,875.1787109375)"/>
<path d="M0 0 C4.46497756 4.1496074 7.87106972 8.77767298 11.375 13.75 C15.42383631 19.4406895 19.49679276 25.0638827 23.92578125 30.46875 C25 32 25 32 25 34 C15.86970027 35.90427108 7.28145408 36.22823248 -2 36 C-2.13425509 27.68737219 -1.75613601 19.52662393 -1 11.25 C-0.90460937 10.15945313 -0.80921875 9.06890625 -0.7109375 7.9453125 C-0.47857932 5.29642926 -0.24155018 2.64805804 0 0 Z " fill="#24274D" transform="translate(846,536)"/>
<path d="M0 0 C0.33 0.66 0.66 1.32 1 2 C0.00390625 3.9453125 0.00390625 3.9453125 -1.4375 6.125 C-1.91058594 6.84945312 -2.38367188 7.57390625 -2.87109375 8.3203125 C-3.24363281 8.87460938 -3.61617187 9.42890625 -4 10 C-4.66 9.34 -5.32 8.68 -6 8 C-4.02 5.36 -2.04 2.72 0 0 Z " fill="#2C2F52" transform="translate(610,183)"/>
</svg>
