<?xml version="1.0" encoding="UTF-8"?>
<svg version="1.1" xmlns="http://www.w3.org/2000/svg" width="1920" height="1080">
<path d="M0 0 C1.43203011 -0.01058945 1.43203011 -0.01058945 2.89299011 -0.02139282 C43.55655745 -0.25364881 43.55655745 -0.25364881 63.59375 3.203125 C64.67897949 3.38584961 65.76420898 3.56857422 66.88232422 3.75683594 C119.80718364 13.02801079 168.00892626 36.9960482 207.59375 73.203125 C208.60872377 74.11400742 209.62437626 75.024134 210.640625 75.93359375 C216.34731742 81.06197721 221.73050148 86.25484892 226.59375 92.203125 C227.58042003 93.37786388 228.56743338 94.55231445 229.5546875 95.7265625 C236.8782609 104.50877292 243.53256568 113.50871638 249.59375 123.203125 C250.1820459 124.1305249 250.1820459 124.1305249 250.78222656 125.07666016 C267.18922775 151.12260684 278.77726693 179.71022859 286.46875 209.453125 C286.76354248 210.57976562 287.05833496 211.70640625 287.36206055 212.8671875 C288.56473276 217.59229686 289.67096398 222.21226996 290.20703125 227.0625 C290.82862641 232.00933803 291.41932582 236.40145925 295.47363281 239.76074219 C300.41077529 242.99658632 305.70067061 245.46411938 311.04199219 247.95166016 C314.74431074 249.76739733 318.13270075 251.93963546 321.53125 254.265625 C322.13420898 254.67619141 322.73716797 255.08675781 323.35839844 255.50976562 C343.600154 269.49015981 362.46412563 285.73906771 377.59375 305.203125 C378.38136719 306.18539063 379.16898438 307.16765625 379.98046875 308.1796875 C435.73278569 378.23114525 449.24964308 475.42491451 439.953125 562.2253418 C435.26415337 602.83324715 425.57372175 643.33873952 407.59375 680.203125 C406.95346342 681.55944133 406.3141123 682.91619973 405.67578125 684.2734375 C393.70320362 709.35544553 377.49572485 732.73380178 357.59375 752.203125 C358.94724565 755.08315866 360.49159064 757.56936664 362.39453125 760.1171875 C362.95269531 760.86871094 363.51085938 761.62023437 364.0859375 762.39453125 C364.68664063 763.19761719 365.28734375 764.00070312 365.90625 764.828125 C367.18433537 766.5489286 368.46166207 768.2702959 369.73828125 769.9921875 C370.38490723 770.86391602 371.0315332 771.73564453 371.69775391 772.63378906 C374.52724869 776.46814435 377.31218847 780.33392911 380.09375 784.203125 C386.27401635 792.78724608 392.54161491 801.30514864 398.82763672 809.81201172 C402.33069827 814.55475222 405.82734055 819.30223585 409.3215332 824.05151367 C412.35136176 828.1679662 415.39086033 832.2767768 418.4453125 836.375 C419.07695313 837.22513672 419.70859375 838.07527344 420.359375 838.95117188 C421.56198036 840.5693835 422.76751628 842.18542311 423.9765625 843.79882812 C427.18737889 848.12661484 430.02406734 852.46488087 432.59375 857.203125 C427.97950145 858.31812254 423.43253502 858.49144538 418.71118164 858.68383789 C417.82585754 858.7229982 416.94053345 858.76215851 416.02838135 858.80250549 C413.10371047 858.93081841 410.1788327 859.05344324 407.25390625 859.17578125 C405.20949724 859.26377742 403.1650994 859.35203318 401.12071228 859.4405365 C396.83114667 859.62536636 392.54147604 859.80745641 388.25170898 859.98754883 C382.78813267 860.21707771 377.32484033 860.4526943 371.86161137 860.69033146 C367.63459235 860.87361502 363.40745024 861.05392032 359.18026543 861.23333549 C357.16826277 861.31901902 355.15629489 861.40552395 353.14436531 861.49290657 C344.29022952 861.87585075 335.43435227 862.24902642 326.57250977 862.38671875 C325.52772964 862.40347656 324.48294952 862.42023437 323.4065094 862.4375 C318.40653715 862.02087407 314.65324127 859.75357822 310.46875 857.140625 C308.57426665 856.03414369 306.67835985 854.93009699 304.78125 853.828125 C303.78609375 853.23902344 302.7909375 852.64992188 301.765625 852.04296875 C296.67455068 849.08989485 291.47196614 846.35020409 286.27114868 843.597229 C283.2929877 842.01660162 280.32502947 840.41701915 277.35546875 838.8203125 C273.12181641 836.54807074 268.87602908 834.30305428 264.61328125 832.0859375 C262.83579879 831.14609562 261.05844584 830.20600876 259.28125 829.265625 C258.49411621 828.86593506 257.70698242 828.46624512 256.89599609 828.05444336 C252.61167679 825.7639334 250.10481792 823.71518237 247.23828125 819.76171875 C245.63234455 817.63873447 245.63234455 817.63873447 243.59375 816.203125 C239.69915021 815.98920329 236.30572221 817.11327996 232.59375 818.203125 C230.759892 818.56133081 228.92103958 818.89488415 227.078125 819.203125 C225.68605835 819.4491748 225.68605835 819.4491748 224.26586914 819.70019531 C153.57898104 831.86620663 75.04848978 821.68042722 15.25390625 779.82421875 C14.03216407 778.95288576 12.81220079 778.07905468 11.59375 777.203125 C10.90007324 776.70699707 10.20639648 776.21086914 9.49169922 775.69970703 C5.69423471 772.97909795 1.90961033 770.2414002 -1.8671875 767.4921875 C-6.18461065 764.35408608 -10.53939549 761.27190383 -14.90625 758.203125 C-17.74078316 756.20482204 -20.57363818 754.20415019 -23.40625 752.203125 C-24.15970703 751.67187012 -24.91316406 751.14061523 -25.68945312 750.59326172 C-46.19309377 736.10212863 -65.19292381 720.25091678 -80.16357422 699.89013672 C-81.38489961 698.23210951 -82.63002916 696.59436002 -83.87890625 694.95703125 C-105.18142742 666.58460405 -129.40625 619.91228048 -129.40625 583.203125 C-130.54707031 582.88214844 -130.54707031 582.88214844 -131.7109375 582.5546875 C-136.88426771 580.66253924 -141.65846945 578.13491086 -146.53125 575.578125 C-147.5622583 575.03760498 -148.5932666 574.49708496 -149.65551758 573.94018555 C-156.90936694 570.09236198 -163.78027977 566.06876284 -170.40625 561.203125 C-171.39367187 560.48640625 -172.38109375 559.7696875 -173.3984375 559.03125 C-176.431828 556.79287024 -179.42389529 554.50894555 -182.40625 552.203125 C-183.25316406 551.56375 -184.10007812 550.924375 -184.97265625 550.265625 C-198.60663089 539.60822803 -210.99666559 526.8437538 -221.19140625 512.86669922 C-222.41195603 511.19531131 -223.65727809 509.54474997 -224.90625 507.89453125 C-276.1000574 439.32658208 -286.95297035 345.08242075 -275.33424377 262.35908508 C-269.07779207 219.31438176 -255.43305509 175.20118796 -230.40625 139.203125 C-229.6740625 138.13964844 -228.941875 137.07617188 -228.1875 135.98046875 C-221.19261573 125.95205101 -213.68439468 116.2934105 -206.24072266 106.59716797 C-204.6681698 104.54493836 -203.1030081 102.48752472 -201.54296875 100.42578125 C-187.76297404 82.24968176 -172.82947163 65.77482856 -154.40625 52.203125 C-153.84615234 51.78224609 -153.28605469 51.36136719 -152.70898438 50.92773438 C-109.69299509 18.62853135 -53.79249533 0.2673185 0 0 Z M-91.046875 167.76171875 C-93.68345412 170.806725 -96.08227865 173.91807655 -98.40625 177.203125 C-99.16679688 178.26660156 -99.92734375 179.33007812 -100.7109375 180.42578125 C-137.17492131 233.43934688 -138.00858287 315.35725708 -127.08789062 376.27490234 C-125.49993375 384.46225566 -123.18808545 392.34786013 -120.40625 400.203125 C-118.81266216 397.16167171 -117.56307632 394.08357877 -116.375 390.86328125 C-106.36941365 364.07095469 -94.7589922 338.39378341 -76.40625 316.203125 C-75.53639089 315.12896086 -74.66660063 314.05474097 -73.796875 312.98046875 C-63.30481057 300.16723566 -51.7507352 289.01143594 -38.40625 279.203125 C-37.34664062 278.42195313 -36.28703125 277.64078125 -35.1953125 276.8359375 C-26.96587914 270.96357641 -18.35278022 265.89752856 -9.40625 261.203125 C-7.84342285 260.37361328 -7.84342285 260.37361328 -6.24902344 259.52734375 C6.37491828 252.95274312 19.53873963 247.67086964 32.71875 242.328125 C33.90897766 241.84333679 35.09920532 241.35854858 36.32550049 240.85906982 C54.20009681 233.58930714 72.10370176 226.7477598 90.59375 221.203125 C86.17424215 201.13653106 62.46034066 182.63866491 46.02734375 171.8203125 C11.9387821 150.1168211 -58.17949208 135.915364 -91.046875 167.76171875 Z M66.00390625 373.52734375 C63.50590031 376.30065667 61.58087024 379.05416183 59.59375 382.203125 C60.28299561 382.1088623 60.97224121 382.01459961 61.68237305 381.91748047 C80.95960673 379.62797689 80.95960673 379.62797689 86.97314453 383.88916016 C90.92593485 388.13153218 93.6764297 392.99665706 96.36523438 398.10302734 C98.06494648 401.00861628 100.08097963 402.98411376 102.59375 405.203125 C105.64686103 398.12550268 107.87837115 391.07367652 109.65625 383.578125 C109.91229004 382.50651123 110.16833008 381.43489746 110.43212891 380.33081055 C113.40636896 367.37081036 115.99777547 353.5584113 115.59375 340.203125 C98.3782032 340.203125 77.29820527 362.29957963 66.00390625 373.52734375 Z M248.59375 506.203125 C247.39338319 507.93018337 246.23520976 509.68658014 245.09375 511.453125 C235.39282995 526.14210677 224.39699187 540.07770182 211.59375 552.203125 C212.86773333 555.69950996 214.33933627 558.48789984 216.5703125 561.4609375 C217.15522461 562.24686279 217.74013672 563.03278809 218.34277344 563.8425293 C218.9618457 564.66277588 219.58091797 565.48302246 220.21875 566.328125 C221.48742737 568.02440446 222.75565861 569.72101767 224.0234375 571.41796875 C224.94334473 572.64555908 224.94334473 572.64555908 225.88183594 573.89794922 C228.70714768 577.70236928 231.42832071 581.57917304 234.140625 585.46484375 C234.62015625 586.03847656 235.0996875 586.61210938 235.59375 587.203125 C236.25375 587.203125 236.91375 587.203125 237.59375 587.203125 C246.21144651 560.71807107 250.20579987 534.05139425 249.59375 506.203125 C249.26375 506.203125 248.93375 506.203125 248.59375 506.203125 Z M85.21875 615.97265625 C70.07229909 618.7841006 54.91920396 620.66650792 39.59375 622.203125 C42.94542678 629.15410731 46.34719109 635.87833831 50.78125 642.203125 C51.47855225 643.2082312 51.47855225 643.2082312 52.18994141 644.23364258 C59.58225617 654.65956083 68.71125278 663.62385471 77.96875 672.390625 C78.86335938 673.25042969 79.75796875 674.11023438 80.6796875 674.99609375 C89.34186536 681.55659038 102.00383622 680.38513672 112.34375 680.390625 C113.54257812 680.40287109 114.74140625 680.41511719 115.9765625 680.42773438 C123.71584778 680.4403254 131.00831141 679.74200996 138.59375 678.203125 C136.85604745 674.60966554 134.73862214 671.43231197 132.40625 668.203125 C131.9740918 667.60137451 131.54193359 666.99962402 131.09667969 666.37963867 C126.62194802 660.18295936 122.02669396 654.07670415 117.42749023 647.97216797 C112.31166913 641.17903905 107.25980334 634.34094217 102.24902344 627.4699707 C100.71100021 625.37026066 99.15954303 623.28219059 97.59375 621.203125 C97.13129883 620.58663086 96.66884766 619.97013672 96.19238281 619.33496094 C94.77824944 617.48225345 94.77824944 617.48225345 92.59375 615.203125 C89.94762719 615.203125 87.80058711 615.47864402 85.21875 615.97265625 Z " fill="#000000" transform="translate(820.40625,70.796875)"/>
<path d="M0 0 C23.96453899 22.39718393 31.03616205 69.74849232 33 101 C33.15979053 106.02097343 33.19492987 111.03938049 33.1875 116.0625 C33.18722809 116.7570932 33.18695618 117.4516864 33.18667603 118.16732788 C33.10257052 165.30745203 24.97645995 216.80238405 -5 255 C-5.99 255.66 -6.98 256.32 -8 257 C-13.57625375 250.29501815 -18.7107065 243.32269759 -23.79101562 236.23974609 C-27.29388431 231.35759778 -30.82637172 226.49989416 -34.39990234 221.66918945 C-35.58515827 220.06516036 -36.76652389 218.45824882 -37.94384766 216.84838867 C-40.62700458 213.18155952 -43.33467508 209.55406928 -46.17578125 206.0078125 C-46.65571533 205.3900293 -47.13564941 204.77224609 -47.63012695 204.13574219 C-48.90210599 202.50082634 -50.20004297 200.88619669 -51.5 199.2734375 C-53.63259572 194.61949163 -52.5047467 191.72562594 -51 187 C-50.61366042 185.61556276 -50.2307784 184.23015544 -49.8515625 182.84375 C-49.65280518 182.14580322 -49.45404785 181.44785645 -49.24926758 180.72875977 C-44.96828625 165.44480258 -42.09878928 149.91543148 -41.66015625 134.03125 C-40.78871262 103.83218786 -40.78871262 103.83218786 -31.18945312 90.68798828 C-15.57368886 68.5271931 -7.8720256 35.16319434 -2.66235352 8.91137695 C-2.46053467 7.90292725 -2.25871582 6.89447754 -2.05078125 5.85546875 C-1.87200439 4.94434326 -1.69322754 4.03321777 -1.5090332 3.09448242 C-1 1 -1 1 0 0 Z " fill="#CCCCCC" transform="translate(1110,465)"/>
<path d="M0 0 C0.495 0.99 0.495 0.99 1 2 C0.69449219 2.44085938 0.38898438 2.88171875 0.07421875 3.3359375 C-8.58009516 16.0614357 -16.48258757 29.17556067 -23.08691406 43.07958984 C-23.99151052 44.98214485 -24.91258619 46.87602053 -25.8359375 48.76953125 C-30.12305746 57.65024278 -33.72715816 66.7009732 -37 76 C-37.25136719 76.71027344 -37.50273438 77.42054688 -37.76171875 78.15234375 C-48.41150605 108.47991063 -54.46230219 139.98828995 -57 172 C-57.09571289 173.19681396 -57.19142578 174.39362793 -57.29003906 175.62670898 C-58.02426991 185.89621167 -58.15405311 196.13156897 -58.13037109 206.42504883 C-58.12504008 209.16688654 -58.13033726 211.90855803 -58.13671875 214.65039062 C-58.14753734 233.60996277 -57.39510885 252.20297461 -54.375 270.9375 C-54.17709366 272.18784027 -54.17709366 272.18784027 -53.97518921 273.46343994 C-45.17414667 328.7616316 -26.95370991 384.77669859 10 428 C10.77988281 428.96164062 11.55976562 429.92328125 12.36328125 430.9140625 C23.7280025 444.84348419 36.41185399 457.46961509 51 468 C51.62342285 468.45181641 52.2468457 468.90363281 52.88916016 469.36914062 C68.46402525 480.56394187 85.25761579 491.07550127 103.10986328 498.24975586 C106 500 106 500 107.14916992 502.57080078 C107.34099854 503.60188965 107.53282715 504.63297852 107.73046875 505.6953125 C107.96991211 506.86940674 108.20935547 508.04350098 108.45605469 509.25317383 C108.69743164 510.53087646 108.93880859 511.8085791 109.1875 513.125 C109.75689838 515.86589045 110.35600522 518.59965236 110.96484375 521.33203125 C111.12240143 522.04117172 111.27995911 522.75031219 111.44229126 523.48094177 C122.33093938 571.24060374 146.16274333 615.70725613 180 651 C180.90621094 651.9590625 181.81242187 652.918125 182.74609375 653.90625 C189.32249641 660.70218424 196.39439473 666.42578056 204 672 C203.67 672.66 203.34 673.32 203 674 C191.68436107 666.38456017 180.59301134 658.56395597 169.73681641 650.30761719 C167.24955889 648.43500666 164.71917316 646.62441884 162.1875 644.8125 C145.86086423 632.91219659 131.18629507 619.00270305 119.2265625 602.67089844 C118.01342434 601.01828746 116.77461088 599.38775631 115.53125 597.7578125 C94.22445985 569.38948778 70 522.70787829 70 486 C68.85917969 485.67902344 68.85917969 485.67902344 67.6953125 485.3515625 C62.52198229 483.45941424 57.74778055 480.93178586 52.875 478.375 C51.8439917 477.83447998 50.8129834 477.29395996 49.75073242 476.73706055 C42.49688306 472.88923698 35.62597023 468.86563784 29 464 C28.01257813 463.28328125 27.02515625 462.5665625 26.0078125 461.828125 C22.974422 459.58974524 19.98235471 457.30582055 17 455 C16.15308594 454.360625 15.30617188 453.72125 14.43359375 453.0625 C0.79961911 442.40510303 -11.59041559 429.6406288 -21.78515625 415.66357422 C-23.00570603 413.99218631 -24.25102809 412.34162497 -25.5 410.69140625 C-76.6938074 342.12345708 -87.54672035 247.87929575 -75.92799377 165.15596008 C-69.67154207 122.11125676 -56.02680509 77.99806296 -31 42 C-30.2678125 40.93652344 -29.535625 39.87304688 -28.78125 38.77734375 C-22.97704223 30.45740687 -16.797714 22.41573206 -10.62084961 14.37084961 C-6.9900751 9.6392718 -3.43141519 4.87831753 0 0 Z " fill="#CBCBCB" transform="translate(621,168)"/>
<path d="M0 0 C0.70108887 0.1232666 1.40217773 0.2465332 2.12451172 0.37353516 C26.14941716 4.83231885 48.80249021 16.92912227 67 33 C67.97453125 33.84175781 68.9490625 34.68351562 69.953125 35.55078125 C84.40752408 48.23729256 95.49717459 63.37492507 104.625 80.25 C105.13969849 81.19818604 105.13969849 81.19818604 105.66479492 82.16552734 C107.14450038 84.98919254 108 86.7635544 108 90 C107.31301025 90.06993164 106.62602051 90.13986328 105.91821289 90.21191406 C93.00406812 91.54346782 80.13409268 93.00918907 67.3125 95.0625 C66.29357666 95.22459961 65.27465332 95.38669922 64.22485352 95.55371094 C59.95130288 96.25734639 55.77918946 97.02103274 51.60546875 98.18359375 C46.10985697 99.42799555 46.10985697 99.42799555 43 98 C41.20421262 95.72256104 39.73538597 93.58977777 38.25 91.125 C37.37549327 89.7471977 36.49652934 88.372215 35.61328125 87 C34.95706787 85.9790625 34.95706787 85.9790625 34.28759766 84.9375 C14.12278138 54.59468962 -17.89726461 38.86405195 -52.3984375 31.25 C-77.44873543 26.7966137 -106.17308458 29.54244175 -129.375 40.375 C-133 42 -133 42 -136 41 C-100.25487109 2.8585496 -50.59561038 -9.11915282 0 0 Z " fill="#CCCCCC" transform="translate(868,193)"/>
<path d="M0 0 C0.96550781 0.00451172 1.93101562 0.00902344 2.92578125 0.01367188 C5.28392089 0.02534583 7.64192602 0.04171979 10 0.0625 C11.40061097 41.94914759 -4.20476094 86.14494623 -28.71655273 119.70581055 C-30 121.0625 -30 121.0625 -33 122.0625 C-33.83917969 120.87720703 -33.83917969 120.87720703 -34.6953125 119.66796875 C-40.93709817 110.87802844 -47.298588 102.17974294 -53.703125 93.5078125 C-54.51813477 92.38874512 -54.51813477 92.38874512 -55.34960938 91.24707031 C-56.44872866 89.79220058 -57.59710201 88.37326066 -58.79101562 86.99511719 C-61.78118852 83.45829792 -62.98879243 81.92462091 -63.05078125 77.15625 C-62.74732687 75.78050094 -62.39417743 74.41505099 -62 73.0625 C-61.80067871 72.33289063 -61.60135742 71.60328125 -61.39599609 70.8515625 C-60.69563638 68.40980948 -59.9427496 65.98779875 -59.1875 63.5625 C-54.18618538 46.79488727 -51.93969099 29.41762994 -50 12.0625 C-50.66 12.0625 -51.32 12.0625 -52 12.0625 C-52 11.4025 -52 10.7425 -52 10.0625 C-34.86274953 3.99673781 -18.29842846 -0.16405488 0 0 Z " fill="#CCCCCC" transform="translate(986,398.9375)"/>
<path d="M0 0 C0.33 0.66 0.66 1.32 1 2 C0.49774902 2.23074219 -0.00450195 2.46148437 -0.52197266 2.69921875 C-65.54944705 32.70049711 -108.62507538 82.83714387 -133.95751953 149.52050781 C-135.82051953 154.62699632 -137.44803623 159.7916263 -139 165 C-139.28327148 165.93634277 -139.56654297 166.87268555 -139.85839844 167.83740234 C-144.23592257 182.42525623 -147.5957132 196.96200742 -150 212 C-150.99 212.33 -151.98 212.66 -153 213 C-160.62276349 202.06232734 -167.45858662 191.13769822 -173 179 C-173.58652344 177.85917969 -174.17304687 176.71835937 -174.77734375 175.54296875 C-177.63150256 167.2722913 -173.60969737 159.54523427 -170.5625 151.8125 C-170.11438965 150.66700684 -169.6662793 149.52151367 -169.20458984 148.34130859 C-160.0406176 125.25348345 -148.89104193 103.21940189 -133 84 C-132.14175936 82.93763548 -131.28368963 81.87513286 -130.42578125 80.8125 C-119.66531237 67.64341474 -107.7196843 56.04950066 -94 46 C-92.41251953 44.83017578 -92.41251953 44.83017578 -90.79296875 43.63671875 C-82.56334308 37.76131399 -73.94785891 32.69575563 -65 28 C-63.42629639 27.1639624 -63.42629639 27.1639624 -61.82080078 26.31103516 C-49.4141075 19.84535963 -36.46694142 14.71920806 -23.5 9.5 C-21.21199905 8.57351046 -18.92423681 7.64643118 -16.63671875 6.71875 C-11.09387493 4.47237162 -5.54814634 2.23324773 0 0 Z " fill="#CCCCCC" transform="translate(876,303)"/>
<path d="M0 0 C1.45703125 1.3984375 1.45703125 1.3984375 2.8125 3.375 C3.32417725 4.10452881 3.83585449 4.83405762 4.36303711 5.58569336 C5.17333374 6.78077515 5.17333374 6.78077515 6 8 C7.1665921 9.66893188 8.33458845 11.33688296 9.50390625 13.00390625 C10.09059082 13.84711426 10.67727539 14.69032227 11.28173828 15.55908203 C13.75796783 19.07674941 16.33886396 22.50980029 18.9375 25.9375 C25.09596183 34.10291505 31.15972906 42.33659487 37.21777344 50.57666016 C40.1423075 54.55322524 43.07139564 58.52643221 46 62.5 C47.15495327 64.06770439 48.30990117 65.63541273 49.46484375 67.203125 C51.91396346 70.52707713 54.36473056 73.84980771 56.81640625 77.171875 C57.44353516 78.02201172 58.07066406 78.87214844 58.71679688 79.74804688 C59.90907674 81.36424847 61.10175681 82.98015493 62.29492188 84.59570312 C63.36552109 86.0472985 64.43415329 87.50034739 65.50048828 88.95507812 C66.4990518 90.31684434 67.50263513 91.67494398 68.51123047 93.02929688 C72 97.77568884 72 97.77568884 72 100 C70.68911318 100.31919939 69.37614752 100.62985947 68.0625 100.9375 C66.96615234 101.19853516 66.96615234 101.19853516 65.84765625 101.46484375 C46.97250254 105.01202627 25.65486554 104.66791037 7 100 C6.20335937 99.80132324 5.40671875 99.60264648 4.5859375 99.39794922 C-12.78576602 94.91048324 -29.64950869 87.961865 -44 77 C-44 76.34 -44 75.68 -44 75 C-43.22470947 75.0707373 -42.44941895 75.14147461 -41.65063477 75.21435547 C-33.39628163 75.91530718 -25.21913613 76.15231711 -16.9375 76.125 C-15.1730957 76.13080078 -15.1730957 76.13080078 -13.37304688 76.13671875 C-5.86654524 76.12841969 1.53118363 75.74987087 9 75 C1.67351942 64.77010806 -5.74458204 54.61926776 -13.31591797 44.5690918 C-18.40565521 37.80889358 -23.4344491 31.00559162 -28.43334961 24.17797852 C-28.97483643 23.43990967 -29.51632324 22.70184082 -30.07421875 21.94140625 C-30.82904541 20.91104248 -30.82904541 20.91104248 -31.59912109 19.85986328 C-32.81182698 18.24982608 -34.09728235 16.69507531 -35.39453125 15.15234375 C-37 13 -37 13 -37 10 C-35.82026611 9.65219482 -35.82026611 9.65219482 -34.61669922 9.29736328 C-31.03581179 8.24099357 -27.45540236 7.18301256 -23.875 6.125 C-22.6375 5.76019531 -21.4 5.39539063 -20.125 5.01953125 C-18.92617188 4.66503906 -17.72734375 4.31054688 -16.4921875 3.9453125 C-14.84259033 3.45828857 -14.84259033 3.45828857 -13.15966797 2.96142578 C-11.03897544 2.31614011 -8.93293699 1.62075758 -6.84423828 0.87841797 C-4 0 -4 0 0 0 Z " fill="#CBCBCB" transform="translate(950,674)"/>
<path d="M0 0 C1.87819121 2.00299808 3.45179017 3.92195156 5.0625 6.125 C6.04396821 7.42080218 7.02574752 8.71636879 8.0078125 10.01171875 C8.75466309 11.01017822 8.75466309 11.01017822 9.51660156 12.02880859 C11.77828823 15.03421645 14.1070614 17.98530156 16.4375 20.9375 C16.88810791 21.51129395 17.33871582 22.08508789 17.80297852 22.67626953 C21.1770395 26.9709629 24.58397832 31.2386465 28 35.5 C29.493206 37.36608017 30.98599398 39.23249353 32.47851562 41.09912109 C33.51761839 42.3973326 34.55804267 43.69448716 35.59960938 44.99072266 C37.15442999 46.92762008 38.70284981 48.86947327 40.25 50.8125 C40.72824219 51.40546875 41.20648437 51.9984375 41.69921875 52.609375 C45 56.77208132 45 56.77208132 45 59 C41.6417158 57.70431628 38.44480665 56.26584742 35.25390625 54.6015625 C34.34568115 54.12847656 33.43745605 53.65539062 32.50170898 53.16796875 C31.04680054 52.40419922 31.04680054 52.40419922 29.5625 51.625 C28.54551025 51.09261719 27.52852051 50.56023438 26.48071289 50.01171875 C17.77674684 45.4395311 9.13334134 40.76222966 0.5234375 36.015625 C-3.30035412 33.91247106 -7.15026797 31.87008443 -11.0234375 29.859375 C-12.01335693 29.33859375 -13.00327637 28.8178125 -14.02319336 28.28125 C-15.90242472 27.29385458 -17.78827136 26.31890013 -19.68188477 25.359375 C-25.56230565 22.24409606 -30.36355399 18.68500993 -34 13 C-34 12.01 -34 11.02 -34 10 C-29.80336426 8.56811702 -25.60413585 7.14419833 -21.40234375 5.72753906 C-19.97387337 5.24468496 -18.546129 4.75967741 -17.11914062 4.27246094 C-15.06568326 3.57176866 -13.0097236 2.87890964 -10.953125 2.1875 C-9.71723633 1.76855469 -8.48134766 1.34960938 -7.20800781 0.91796875 C-4 0 -4 0 0 0 Z " fill="#CACACA" transform="translate(1098,874)"/>
<path d="M0 0 C0.99 0 1.98 0 3 0 C4.58008438 1.90293069 5.94248107 3.76414649 7.3125 5.8125 C8.18932226 7.08737333 9.06836047 8.36072447 9.94921875 9.6328125 C10.4292334 10.32793945 10.90924805 11.02306641 11.40380859 11.73925781 C13.1495142 14.21176223 14.95133928 16.63501946 16.76953125 19.0546875 C17.40785889 19.90571045 18.04618652 20.7567334 18.70385742 21.63354492 C19.97406224 23.32214736 21.24889602 25.00727872 22.52856445 26.6887207 C23.10952881 27.46562256 23.69049316 28.24252441 24.2890625 29.04296875 C24.81193848 29.73414795 25.33481445 30.42532715 25.87353516 31.13745117 C27 33 27 33 27 36 C17.34346884 38.38222795 7.86674975 38.19538118 -2 38 C-2.23105878 25.1460221 -2.03996736 12.71336798 0 0 Z " fill="#C6C6C6" transform="translate(845,535)"/>
<path d="M0 0 C0.33 0.66 0.66 1.32 1 2 C0.63648438 2.53367188 0.27296875 3.06734375 -0.1015625 3.6171875 C-3.93509236 9.29867534 -7.5230981 15.09419854 -11 21 C-11.66 19.68 -12.32 18.36 -13 17 C-6.565 8.585 -6.565 8.585 0 0 Z " fill="#BEBEBE" transform="translate(621,168)"/>
<path d="M0 0 C0.33 0.66 0.66 1.32 1 2 C0.43490723 2.2673999 -0.13018555 2.5347998 -0.71240234 2.81030273 C-3.26670768 4.01914442 -5.82085567 5.22831817 -8.375 6.4375 C-9.26445313 6.85837891 -10.15390625 7.27925781 -11.0703125 7.71289062 C-11.92109375 8.11572266 -12.771875 8.51855469 -13.6484375 8.93359375 C-14.43395996 9.30540771 -15.21948242 9.67722168 -16.02880859 10.06030273 C-17.358629 10.69424858 -18.68233248 11.34116624 -20 12 C-19.76586914 10.13378906 -19.76586914 10.13378906 -19 8 C-17.14233398 6.81152344 -17.14233398 6.81152344 -14.74609375 5.859375 C-13.46508789 5.33730469 -13.46508789 5.33730469 -12.15820312 4.8046875 C-11.26037109 4.45664062 -10.36253906 4.10859375 -9.4375 3.75 C-8.08495117 3.20472656 -8.08495117 3.20472656 -6.70507812 2.6484375 C-4.47516611 1.7517533 -2.24052441 0.86975012 0 0 Z " fill="#ADADAD" transform="translate(876,303)"/>
<path d="M0 0 C4 3 8 6 12 9 C11.67 9.66 11.34 10.32 11 11 C9.34500689 9.93071226 7.70124374 8.84402808 6.0625 7.75 C5.14597656 7.14671875 4.22945312 6.5434375 3.28515625 5.921875 C0.88901781 3.90666113 0.31723076 3.05081496 0 0 Z " fill="#A4A4A4" transform="translate(813,831)"/>
<path d="M0 0 C0.33 0.66 0.66 1.32 1 2 C0.00390625 3.9453125 0.00390625 3.9453125 -1.4375 6.125 C-1.91058594 6.84945312 -2.38367188 7.57390625 -2.87109375 8.3203125 C-3.24363281 8.87460938 -3.61617187 9.42890625 -4 10 C-4.33 9.01 -4.66 8.02 -5 7 C-4.00390625 5.17578125 -4.00390625 5.17578125 -2.5625 3.3125 C-2.08941406 2.68988281 -1.61632812 2.06726563 -1.12890625 1.42578125 C-0.75636719 0.95527344 -0.38382813 0.48476562 0 0 Z " fill="#8D8D8D" transform="translate(621,168)"/>
</svg>
