<?xml version="1.0" standalone="no"?>
<!DOCTYPE svg PUBLIC "-//W3C//DTD SVG 20010904//EN"
 "http://www.w3.org/TR/2001/REC-SVG-20010904/DTD/svg10.dtd">
<svg version="1.0" xmlns="http://www.w3.org/2000/svg"
 width="200.000000pt" height="200.000000pt" viewBox="0 0 200.000000 200.000000"
 preserveAspectRatio="xMidYMid meet">
<metadata>
Created by potrace 1.10, written by Peter Selinger 2001-2011
</metadata>
<g transform="translate(0.000000,200.000000) scale(0.100000,-0.100000)"
fill="#000000" stroke="none">
<path d="M0 1000 l0 -1000 1000 0 1000 0 0 1000 0 1000 -1000 0 -1000 0 0
-1000z m1017 655 c93 -22 152 -53 211 -112 55 -55 106 -147 117 -214 4 -25 14
-43 28 -51 46 -24 131 -116 158 -170 16 -32 36 -86 44 -120 19 -82 19 -238 0
-313 -21 -80 -67 -174 -104 -209 l-30 -29 44 -64 c24 -36 41 -72 38 -79 -4
-10 -26 -14 -83 -14 l-77 0 -26 39 -26 39 -47 -14 c-105 -31 -281 -11 -373 43
-94 55 -185 185 -198 283 -4 29 -12 40 -39 55 -83 44 -161 160 -189 277 -19
83 -19 247 0 323 65 252 296 390 552 330z"/>
<path d="M810 1627 c-3 -3 -17 -7 -30 -9 -86 -13 -208 -110 -252 -200 -40 -83
-51 -151 -46 -289 7 -185 48 -274 169 -366 51 -39 57 -47 74 -108 35 -130 128
-230 255 -273 71 -25 216 -28 284 -7 l48 15 34 -36 c29 -33 38 -36 80 -36 26
1 49 3 51 6 2 2 -10 25 -26 52 -17 26 -31 53 -31 60 0 7 15 30 34 53 73 88
106 190 106 336 0 208 -57 328 -203 428 -17 11 -30 33 -37 60 -20 81 -40 122
-84 179 -36 45 -61 64 -123 95 -73 36 -83 38 -187 41 -61 2 -113 2 -116 -1z
m205 -126 c46 -20 109 -80 132 -124 11 -22 12 -36 5 -52 -8 -18 -21 -23 -74
-28 -109 -10 -174 -40 -249 -116 -54 -54 -70 -79 -93 -141 -38 -100 -47 -109
-75 -74 -33 42 -43 98 -39 218 3 95 7 119 29 167 31 66 87 124 143 150 55 25
166 25 221 0z m163 -323 c32 -32 -1 -196 -53 -255 l-22 -27 -40 43 c-37 40
-41 42 -91 39 l-52 -3 40 -60 c22 -33 40 -66 40 -72 0 -19 -51 -41 -93 -41
-51 0 -68 26 -61 93 2 27 12 61 21 75 9 14 17 35 18 46 2 52 80 130 160 161
40 15 118 16 133 1z m228 -216 c23 -80 16 -239 -15 -309 -30 -68 -55 -91 -77
-72 -18 15 -111 150 -121 175 -3 9 7 30 24 52 40 50 78 119 93 167 7 22 19 48
28 58 14 16 16 16 34 0 10 -9 26 -41 34 -71z m-299 -264 c46 -52 123 -177 117
-193 -17 -42 -120 -48 -199 -11 -56 26 -118 84 -136 129 -20 47 -3 60 85 73
42 6 79 14 83 17 12 13 29 7 50 -15z"/>
<path d="M792 1464 c-87 -43 -136 -130 -148 -261 -7 -70 8 -167 31 -212 l13
-25 7 35 c12 53 49 130 84 174 73 90 176 143 299 154 l64 6 -34 50 c-67 101
-204 135 -316 79z"/>
<path d="M1058 1150 c-49 -15 -98 -51 -129 -96 l-30 -44 75 0 76 0 27 -41 27
-41 20 39 c21 40 46 133 46 171 0 19 -5 22 -42 21 -24 0 -55 -4 -70 -9z"/>
<path d="M875 909 c-8 -67 2 -84 40 -74 11 2 30 5 43 5 21 0 20 3 -20 65 -24
35 -46 65 -50 65 -3 0 -9 -28 -13 -61z"/>
<path d="M1341 985 c-16 -64 -65 -155 -101 -190 l-29 -28 38 -51 c20 -28 46
-66 56 -83 11 -18 22 -33 26 -33 13 0 48 98 59 163 11 71 1 181 -23 239 l-13
33 -13 -50z"/>
<path d="M1042 679 c-18 -6 -58 -13 -88 -17 l-55 -7 26 -40 c52 -79 150 -124
239 -111 l44 7 -61 89 c-34 49 -64 89 -67 89 -3 -1 -20 -5 -38 -10z"/>
</g>
</svg>
