<?xml version="1.0" standalone="no"?>
<!DOCTYPE svg PUBLIC "-//W3C//DTD SVG 20010904//EN"
 "http://www.w3.org/TR/2001/REC-SVG-20010904/DTD/svg10.dtd">
<svg version="1.0" xmlns="http://www.w3.org/2000/svg"
 width="200.000000pt" height="200.000000pt" viewBox="0 0 200.000000 200.000000"
 preserveAspectRatio="xMidYMid meet">
<metadata>
Created by potrace 1.10, written by Peter Selinger 2001-2011
</metadata>
<g transform="translate(0.000000,200.000000) scale(0.100000,-0.100000)"
fill="#000000" stroke="none">
<path d="M780 1652 c-213 -56 -330 -229 -330 -487 0 -205 65 -350 195 -431 35
-23 44 -34 48 -65 8 -62 64 -165 119 -219 53 -52 126 -93 199 -109 65 -15 199
-13 254 4 27 8 50 13 50 12 1 -1 12 -19 24 -39 l23 -38 79 0 c58 0 81 4 85 14
3 7 -15 43 -40 78 l-45 65 30 29 c37 35 83 129 104 209 19 75 19 231 0 313 -8
34 -28 88 -44 120 -27 54 -112 146 -158 170 -14 8 -24 26 -28 51 -10 57 -57
150 -103 202 -101 114 -295 164 -462 121z m255 -44 c133 -33 226 -130 270
-281 13 -44 25 -64 53 -85 144 -107 199 -236 189 -442 -6 -131 -24 -190 -87
-282 -28 -40 -50 -80 -50 -88 0 -8 9 -28 20 -45 28 -42 25 -55 -11 -55 -21 0
-43 11 -67 31 -33 29 -38 31 -81 23 -25 -5 -94 -9 -152 -9 -102 0 -108 1 -182
38 -108 54 -165 123 -201 248 -15 49 -26 65 -92 124 -115 103 -154 200 -154
380 0 157 37 263 120 346 100 100 264 137 425 97z"/>
<path d="M806 1515 c-135 -48 -218 -210 -202 -394 11 -127 65 -204 107 -154 9
10 28 49 44 87 50 121 153 204 284 228 31 6 66 12 78 14 13 2 30 15 38 28 15
23 15 27 -4 63 -26 51 -76 97 -131 122 -53 24 -155 27 -214 6z m211 -49 c35
-17 63 -40 87 -73 20 -26 36 -51 36 -55 0 -5 -22 -8 -49 -8 -70 0 -172 -34
-229 -78 -80 -60 -124 -121 -158 -222 l-22 -65 -12 30 c-50 128 -30 312 44
410 62 81 199 109 303 61z"/>
<path d="M1034 1184 c-75 -27 -152 -108 -157 -167 -1 -12 -10 -34 -20 -48 -9
-14 -20 -46 -23 -72 -6 -42 -4 -48 25 -78 28 -28 36 -30 69 -24 74 14 89 52
47 120 -13 22 -25 43 -25 48 0 18 72 6 93 -16 42 -43 54 -49 75 -38 32 17 62
75 78 150 13 63 13 75 0 100 -9 16 -23 31 -31 35 -27 10 -87 5 -131 -10z m136
-46 c0 -39 -26 -131 -47 -172 l-20 -40 -27 42 -26 42 -76 0 -75 0 30 44 c47
68 114 103 199 105 37 1 42 -2 42 -21z m-233 -232 l42 -64 -51 -6 c-28 -4 -53
-5 -55 -2 -8 7 7 136 15 136 4 0 26 -29 49 -64z"/>
<path d="M1327 1033 c-8 -10 -25 -43 -36 -74 -12 -31 -41 -85 -66 -120 -25
-35 -45 -69 -45 -76 0 -19 100 -163 125 -179 65 -43 125 79 125 252 0 154 -52
253 -103 197z m63 -134 c7 -48 7 -91 0 -136 -11 -65 -46 -163 -59 -163 -4 0
-15 15 -26 33 -10 17 -36 55 -56 83 l-38 51 29 28 c36 35 85 126 101 190 l13
50 13 -33 c7 -17 18 -64 23 -103z"/>
<path d="M968 706 c-35 -7 -66 -20 -80 -34 l-23 -22 24 -46 c43 -81 128 -134
226 -141 51 -4 64 -2 88 17 15 12 27 31 27 42 0 22 -65 124 -108 171 -29 30
-55 33 -154 13z m179 -106 l62 -89 -37 -7 c-87 -17 -195 32 -247 111 l-26 40
55 7 c30 4 70 11 88 17 18 5 35 9 38 10 3 0 33 -40 67 -89z"/>
</g>
</svg>
